<?xml version="1.0" encoding="UTF-8"?>
<!DOCTYPE svg PUBLIC "-//W3C//DTD SVG 1.1//EN" "http://www.w3.org/Graphics/SVG/1.1/DTD/svg11.dtd">
<!-- Creator: CorelDRAW 2019 (64-Bit) -->
<svg xmlns="http://www.w3.org/2000/svg" xml:space="preserve" width="2.37501in" height="2.37501in" version="1.1" style="shape-rendering:geometricPrecision; text-rendering:geometricPrecision; image-rendering:optimizeQuality; fill-rule:evenodd; clip-rule:evenodd"
viewBox="0 0 2375.01 2375.01"
 xmlns:xlink="http://www.w3.org/1999/xlink"
 xmlns:xodm="http://www.corel.com/coreldraw/odm/2003">
 <defs>
  <style type="text/css">
   <![CDATA[
    .fil2 {fill:black}
    .fil15 {fill:#2BCE6C}
    .fil5 {fill:#2CC268}
    .fil12 {fill:#32B566}
    .fil4 {fill:#33DC76}
    .fil8 {fill:#33E57A}
    .fil10 {fill:#33E67A}
    .fil11 {fill:#35D775}
    .fil14 {fill:#36AB65}
    .fil17 {fill:#36BD6C}
    .fil13 {fill:#37975D}
    .fil16 {fill:#3A9960}
    .fil7 {fill:#53F19C}
    .fil6 {fill:#7CFFB0}
    .fil9 {fill:#FBFFD3}
    .fil3 {fill:#056A2D;fill-rule:nonzero}
    .fil23 {fill:#2CC268;fill-rule:nonzero}
    .fil19 {fill:#32B566;fill-rule:nonzero}
    .fil18 {fill:#33DC76;fill-rule:nonzero}
    .fil22 {fill:#37975D;fill-rule:nonzero}
    .fil21 {fill:#3A9960;fill-rule:nonzero}
    .fil20 {fill:#53F19C;fill-rule:nonzero}
    .fil1 {fill:url(#id0)}
    .fil0 {fill:url(#id1)}
   ]]>
  </style>
  <linearGradient id="id0" gradientUnits="userSpaceOnUse" x1="-560.06" y1="356.37" x2="3084.44" y2="1930.74">
   <stop offset="0" style="stop-opacity:1; stop-color:#4DA971"/>
   <stop offset="0.380392" style="stop-opacity:1; stop-color:#00AB44"/>
   <stop offset="0.741176" style="stop-opacity:1; stop-color:#28DB6F"/>
   <stop offset="1" style="stop-opacity:1; stop-color:#33DC76"/>
  </linearGradient>
  <linearGradient id="id1" gradientUnits="userSpaceOnUse" xlink:href="#id0" x1="-746.7" y1="267.61" x2="3287.03" y2="2010.12">
  </linearGradient>
 </defs>
 <g id="Layer_x0020_1">
  <metadata id="CorelCorpID_0Corel-Layer"/>
  <g id="_1921250365248">
   <circle class="fil0" cx="1187.5" cy="1187.5" r="1187.5"/>
   <circle class="fil1" cx="1187.5" cy="1187.5" r="1072.92"/>
   <circle class="fil2" cx="1187.5" cy="1187.5" r="1000.02"/>
   <path class="fil3" d="M1215.54 33.32c-9.35,-0.21 -18.68,-0.31 -28.04,-0.34l0 27.78c9.18,0.03 18.33,0.13 27.51,0.33l0.53 -27.77 -28.82 -0.33 0.18 27.78 0.6 -0 28.04 -27.44zm-169.04 8.19c-9.17,1.13 -18.81,2.18 -27.88,3.74l4.2 27.46c8.9,-1.48 18.21,-2.53 27.19,-3.64l-3.5 -27.56zm-165.35 32.56c-9.04,2.47 -18.05,5.07 -27.02,7.78l8.08 26.57c8.76,-2.63 17.55,-5.17 26.37,-7.58l-7.43 -26.77zm-158.84 56.47c-8.58,3.78 -17.1,7.67 -25.59,11.65l11.91 25.1c8.28,-3.89 16.6,-7.69 24.97,-11.37l-11.29 -25.38zm-148.84 79.09c-7.94,4.98 -15.8,10.08 -23.61,15.26l15.41 23.11c7.63,-5.05 15.31,-10.03 23.06,-14.9l-14.86 -23.47zm-135.72 99.89c-7.12,6.1 -14.15,12.28 -21.15,18.52l18.56 20.68c6.83,-6.1 13.69,-12.13 20.65,-18.09l-18.06 -21.1zm-119.87 118.56c-6.16,7.06 -12.26,14.17 -18.24,21.39l21.43 17.68c5.86,-7.03 11.8,-13.98 17.81,-20.88l-20.99 -18.19zm-101.39 134.61c-5.08,7.88 -10.05,15.82 -14.94,23.81l23.74 14.43c4.78,-7.8 9.63,-15.55 14.59,-23.24l-23.39 -15zm-80.74 147.95c-3.89,8.53 -7.63,17.12 -11.31,25.74l25.58 10.83c3.59,-8.41 7.24,-16.8 11.04,-25.12l-25.31 -11.45zm-58.24 158.2c-2.58,9.02 -5.04,18.06 -7.41,27.13l26.91 6.92c2.31,-8.85 4.72,-17.67 7.23,-26.46l-26.72 -7.59zm-34.41 165.07c-1.2,9.28 -2.32,18.54 -3.36,27.84l27.62 2.98c1.01,-9.13 2.11,-18.21 3.3,-27.31l-27.56 -3.5zm-10.03 168.16c0,9.32 0.36,18.8 0.69,28.13l27.76 -1.06c-0.31,-9.09 -0.67,-18.33 -0.67,-27.42l-27.78 0.35zm14.26 167.95c1.42,9.25 3.07,18.51 4.75,27.72l27.31 -5.06c-1.64,-8.98 -3.25,-18.02 -4.63,-27.04l-27.43 4.37zm38.6 164.13c2.81,8.94 5.73,17.85 8.76,26.72l26.26 -9.06c-2.96,-8.65 -5.81,-17.35 -8.55,-26.07l-26.47 8.42zm62.24 156.65c4.09,8.43 8.28,16.82 12.58,25.15l24.65 -12.81c-4.2,-8.13 -8.28,-16.31 -12.28,-24.54l-24.95 12.2zm84.46 145.85c5.26,7.75 10.65,15.43 16.11,23.04l22.54 -16.24c-5.33,-7.44 -10.59,-14.93 -15.73,-22.5l-22.92 15.69zm104.74 132.02c6.39,6.91 12.86,13.69 19.33,20.52l19.87 -19.41c-6.38,-6.38 -12.63,-13.29 -18.76,-19.92l-20.44 18.81zm122.82 115.5c7.28,5.9 14.61,11.73 22.03,17.46l16.91 -22.05c-7.24,-5.59 -14.41,-11.28 -21.51,-17.05l-17.43 21.64zm138.2 96.44c8.05,4.8 16.17,9.48 24.34,14.07l13.55 -24.25c-7.97,-4.49 -15.89,-9.06 -23.75,-13.74l-14.14 23.91zm150.8 75.3c8.68,3.56 17.39,7 26.14,10.36l9.87 -25.97c-8.54,-3.28 -17.04,-6.64 -25.51,-10.11l-10.5 25.72zm160.24 52.39c9.11,2.25 18.22,4.38 27.38,6.42l5.91 -27.14c-8.93,-1.98 -17.83,-4.07 -26.71,-6.26l-6.58 26.98zm166.13 28.35c9.33,0.91 18.68,1.67 28.03,2.35l1.93 -27.71c-9.12,-0.67 -18.23,-1.41 -27.33,-2.3l-2.63 27.65zm168.5 3.98c9.36,-0.43 18.73,-1.01 28.07,-1.69l-2.1 -27.7c-9.11,0.68 -18.26,1.23 -27.38,1.65l1.41 27.74zm167.31 -20.33c9.2,-1.78 18.38,-3.73 27.53,-5.76l-6.08 -27.1c-8.93,1.98 -17.87,3.88 -26.85,5.61l5.4 27.25zm162.59 -44.59c8.83,-3.14 17.63,-6.37 26.38,-9.74l-10.03 -25.91c-8.54,3.28 -17.12,6.43 -25.74,9.5l9.39 26.14zm154.27 -67.93c8.28,-4.39 16.5,-8.89 24.67,-13.48l-13.71 -24.17c-7.97,4.49 -16,8.87 -24.07,13.16l13.12 24.49zm142.67 -89.7c7.56,-5.55 15.02,-11.2 22.44,-16.93l-17.04 -21.94c-7.24,5.59 -14.53,11.12 -21.91,16.53l16.5 22.35zm128.2 -109.51c6.65,-6.62 13.23,-13.26 19.74,-20l-20.1 -19.17c-6.31,6.61 -12.81,13.08 -19.29,19.53l19.65 19.65zm110.93 -126.87c5.63,-7.49 11.19,-15.03 16.64,-22.65l-22.64 -16.1c-5.33,7.44 -10.75,14.81 -16.26,22.12l22.25 16.63zm91.36 -141.62c4.5,-8.22 8.87,-16.51 13.18,-24.84l-24.72 -12.66c-4.2,8.13 -8.47,16.22 -12.86,24.24l24.41 13.26zm69.74 -153.46c3.24,-8.8 6.36,-17.63 9.39,-26.5l-26.31 -8.91c-2.96,8.65 -6,17.28 -9.17,25.86l26.09 9.55zm46.49 -162.06c1.91,-9.18 3.73,-18.38 5.41,-27.6l-27.35 -4.88c-1.63,8.99 -3.42,17.97 -5.28,26.92l27.21 5.57zm22.28 -167.06c0.56,-9.36 1.01,-18.73 1.34,-28.1l-27.76 -0.87c-0.31,9.13 -0.77,18.27 -1.31,27.39l27.73 1.58zm-2.06 -168.54c-0.8,-9.33 -1.65,-18.69 -2.7,-28l-27.6 3.16c1,9.09 1.85,18.19 2.63,27.3l27.67 -2.46zm-26.41 -166.45c-2.13,-9.13 -4.39,-18.23 -6.77,-27.3l-26.86 7.09c2.31,8.85 4.51,17.72 6.59,26.63l27.03 -6.42zm-50.51 -160.85c-3.46,-8.7 -7.02,-17.38 -10.7,-26l-25.52 10.97c3.59,8.42 7.06,16.88 10.44,25.38l25.78 -10.35zm-73.52 -151.67c-4.69,-8.11 -9.49,-16.17 -14.38,-24.16l-23.65 14.57c4.78,7.8 9.45,15.67 14.03,23.59l24 -13.99zm-94.83 -139.32c-5.81,-7.35 -11.75,-14.6 -17.73,-21.81l-21.32 17.81c5.85,7.03 11.64,14.12 17.31,21.3l21.74 -17.29zm-114.07 -124.15c-6.83,-6.39 -13.7,-12.82 -20.71,-19.02l-18.43 20.78c6.81,6.11 13.53,12.31 20.21,18.57l18.93 -20.33zm-130.79 -106.27c-7.69,-5.37 -15.43,-10.63 -23.24,-15.81l-15.28 23.2c7.63,5.05 15.19,10.2 22.69,15.44l15.83 -22.83zm-144.85 -86.16c-8.38,-4.2 -16.82,-8.28 -25.31,-12.26l-11.75 25.17c8.28,3.9 16.52,7.87 24.69,11.96l12.36 -24.87zm-155.92 -64.08c-8.92,-2.91 -17.85,-5.72 -26.83,-8.42l-7.92 26.63c8.76,2.62 17.48,5.37 26.17,8.21l8.58 -26.42zm-163.67 -40.53c-9.24,-1.56 -18.5,-3.07 -27.78,-4.4l-3.85 27.51c9.05,1.29 18.08,2.78 27.09,4.3l4.54 -27.41z"/>
   <g>
    <polygon id="Vector_102" class="fil4" points="608.11,638.67 761.99,849.3 708.96,1046.85 874.84,1324.13 1040.66,1538.79 1292,1528.84 1141.57,1264.91 1159.76,1114.16 1274.91,1247.22 1345,1068.86 1557.83,1076.63 1427.9,993.83 1725.8,1091.82 1878.7,906.35 1947.22,884.01 1948.91,821.37 1848.93,580.36 1668.55,511.81 1628.37,587.18 1762.57,650.45 1820.7,805.26 1702.75,894.88 1486.23,644.26 1200.52,547.49 1109.9,568.57 917.57,493.21 "/>
    <polygon id="Vector_103" class="fil5" points="1702.75,894.59 1574.96,739.19 1548.05,831.28 1426.2,863.23 1226.2,886.81 1345,1068.57 1557.87,1076.3 1427.9,993.5 1725.8,1091.52 "/>
    <polygon id="Vector_104" class="fil6" points="1668.51,511.81 1628.35,586.89 1762.55,650.45 1848.9,580.36 "/>
    <polygon id="Vector_105" class="fil7" points="1820.85,805.55 1762.73,650.78 1846.1,583.16 1949.06,821.66 "/>
    <polygon id="Vector_106" class="fil8" points="1702.81,894.88 1725.89,1091.82 1949.04,821.37 1820.79,805.26 "/>
    <polygon id="Vector_107" class="fil9" points="1947.28,884.01 1646.37,928.68 1596.79,897.65 1524.13,964.35 1636.98,986.39 "/>
    <polygon id="Vector_108" class="fil7" points="1547.98,831.61 1596.7,897.65 1519.34,969.95 1416.76,950.08 1426.17,863.86 "/>
    <polygon id="Vector_109" class="fil10" points="1489.5,642.42 1351.88,739.48 1426.22,863.86 1548.07,831.61 1574.99,739.48 "/>
    <polygon id="Vector_110" class="fil11" points="1328.04,590.6 1234.86,642.09 1163.9,699.46 1351.97,739.19 1486.37,644.26 "/>
    <polygon id="Vector_111" class="fil5" points="1119.39,811.76 1226.26,887.14 1426.26,863.23 1351.88,739.19 1163.85,699.46 "/>
    <polygon id="Vector_112" class="fil8" points="1234.71,642.09 949.17,592.15 1163.75,699.79 "/>
    <polygon id="Vector_113" class="fil12" points="1327.76,590.6 1200.39,547.49 1109.77,568.57 1139.93,625.65 1238.19,639.91 "/>
    <polygon id="Vector_114" class="fil12" points="949.11,592.15 892.71,805.26 1119.24,812.08 1163.67,699.79 "/>
    <polygon id="Vector_115" class="fil13" points="1345.13,1069.19 1177.57,921.23 1226.28,887.44 "/>
    <polygon id="Vector_116" class="fil14" points="1119.39,812.08 1177.51,921.23 1226.26,887.44 "/>
    <polygon id="Vector_117" class="fil15" points="1344.91,1068.86 1274.82,1247.22 892.71,805.26 1119.24,812.08 1177.36,920.94 "/>
    <polygon id="Vector_118" class="fil16" points="917.59,493.21 1000.83,601.14 949.19,592.15 927.3,674.96 608.11,638.67 "/>
    <polygon id="Vector_119" class="fil14" points="1110.07,568.57 917.75,493.21 1000.97,601.14 1140.24,625.65 "/>
    <polygon id="Vector_120" class="fil12" points="978.44,904.5 761.99,849.3 608.11,639 927.3,674.96 892.8,805.26 "/>
    <polygon id="Vector_121" class="fil14" points="1159.86,1113.85 709.08,1046.85 762.08,848.97 978.56,904.18 "/>
    <polygon id="Vector_122" class="fil13" points="874.94,1324.13 709.08,1046.85 1159.86,1114.16 "/>
    <polygon id="Vector_123" class="fil17" points="1141.67,1265.2 874.94,1324.13 1159.86,1114.16 "/>
    <polygon id="Vector_124" class="fil8" points="1040.76,1538.79 874.94,1324.13 1141.67,1264.91 "/>
    <polygon id="Vector_125" class="fil12" points="1292.11,1528.54 1040.81,1538.79 1141.67,1264.91 "/>
    <polygon id="Vector_126" class="fil2" points="1473.19,756.22 1416.76,738.56 1424.44,768.04 1449.25,774.86 "/>
    <polygon id="Vector_127" class="fil18" points="710.3,821.37 630.83,821.37 630.83,899.83 710.3,899.83 "/>
    <polygon id="Vector_128" class="fil19" points="546.98,783.22 496.96,783.22 496.96,832.83 546.98,832.83 "/>
    <polygon id="Vector_129" class="fil18" points="607.57,703.81 568.24,703.81 568.24,742.88 607.57,742.88 "/>
    <polygon id="Vector_130" class="fil19" points="502.43,880.63 452.44,880.63 452.44,929.93 502.43,929.93 "/>
    <polygon id="Vector_131" class="fil19" points="620.91,950.08 581.64,950.08 581.64,989.15 620.91,989.15 "/>
    <polygon id="Vector_132" class="fil18" points="586.61,884.65 567.38,884.65 567.38,903.54 586.61,903.54 "/>
    <polygon id="Vector_133" class="fil18" points="680.91,965.9 661.67,965.9 661.67,984.84 680.91,984.84 "/>
    <polygon id="Vector_134" class="fil20" points="546.2,988.23 466.7,988.23 466.7,1066.72 546.2,1066.72 "/>
    <polygon id="Vector_135" class="fil21" points="445.18,1069.82 425.94,1069.82 425.94,1089.06 445.18,1089.06 "/>
    <polygon id="Vector_136" class="fil19" points="678.89,1067.64 639.56,1067.64 639.56,1106.41 678.89,1106.41 "/>
    <polygon id="Vector_137" class="fil18" points="598.55,1126.28 559.22,1126.28 559.22,1165.34 598.55,1165.34 "/>
    <polygon id="Vector_138" class="fil19" points="615.7,1209.07 576.4,1209.07 576.4,1248.15 615.7,1248.15 "/>
    <polygon id="Vector_139" class="fil19" points="758.04,1177.13 678.56,1177.13 678.56,1255.59 758.04,1255.59 "/>
    <polygon id="Vector_140" class="fil18" points="488.53,1171.85 469.33,1171.85 469.33,1190.76 488.53,1190.76 "/>
    <polygon id="Vector_141" class="fil22" points="596.79,1313.29 557.46,1313.29 557.46,1352.36 596.79,1352.36 "/>
    <polygon id="Vector_142" class="fil19" points="734.45,1294.98 695.12,1294.98 695.12,1333.78 734.45,1333.78 "/>
    <polygon id="Vector_143" class="fil21" points="830.45,1335.3 811.21,1335.3 811.21,1354.24 830.45,1354.24 "/>
    <polygon id="Vector_144" class="fil21" points="740.23,1391.13 721.02,1391.13 721.02,1410.06 740.23,1410.06 "/>
    <polygon id="Vector_145" class="fil21" points="643.63,1413.46 624.43,1413.46 624.43,1432.39 643.63,1432.39 "/>
    <polygon id="Vector_146" class="fil22" points="737.1,1439.22 697.77,1439.22 697.77,1478.28 737.1,1478.28 "/>
    <polygon id="Vector_147" class="fil22" points="852.6,1428.35 813.26,1428.35 813.26,1467.44 852.6,1467.44 "/>
    <polygon id="Vector_148" class="fil22" points="814.15,1497.55 774.82,1497.55 774.82,1536.28 814.15,1536.28 "/>
    <polygon id="Vector_149" class="fil18" points="707.94,1504.36 668.61,1504.36 668.61,1543.13 707.94,1543.13 "/>
    <polygon id="Vector_150" class="fil18" points="856.05,1581.89 836.85,1581.89 836.85,1601.13 856.05,1601.13 "/>
    <polygon id="Vector_151" class="fil18" points="817.07,1602.68 777.74,1602.68 777.74,1641.75 817.07,1641.75 "/>
    <polygon id="Vector_152" class="fil18" points="901.43,1693.24 882.19,1693.24 882.19,1712.17 901.43,1712.17 "/>
    <polygon id="Vector_153" class="fil22" points="933.41,1491.62 883.39,1491.62 883.39,1541.25 933.41,1541.25 "/>
    <polygon id="Vector_154" class="fil22" points="1056.3,1578.8 976.8,1578.8 976.8,1657.26 1056.3,1657.26 "/>
    <polygon id="Vector_155" class="fil18" points="944.51,1617.24 905.18,1617.24 905.18,1656.02 944.51,1656.02 "/>
    <polygon id="Vector_156" class="fil18" points="975.93,1663.78 956.72,1663.78 956.72,1682.69 975.93,1682.69 "/>
    <polygon id="Vector_157" class="fil18" points="976.85,1716.81 937.52,1716.81 937.52,1755.58 976.85,1755.58 "/>
    <polygon id="Vector_158" class="fil18" points="1087.98,1766.12 1048.65,1766.12 1048.65,1804.89 1087.98,1804.89 "/>
    <polygon id="Vector_159" class="fil18" points="1164.44,1716.19 1114.39,1716.19 1114.39,1765.53 1164.44,1765.53 "/>
    <polygon id="Vector_160" class="fil22" points="1139.22,1581.58 1099.92,1581.58 1099.92,1620.35 1139.22,1620.35 "/>
    <polygon id="Vector_161" class="fil23" points="1352.5,1591.19 1273.01,1591.19 1273.01,1669.98 1352.5,1669.98 "/>
    <polygon id="Vector_162" class="fil18" points="1160.15,1672.45 1140.91,1672.45 1140.91,1691.39 1160.15,1691.39 "/>
    <polygon id="Vector_163" class="fil18" points="1226.2,1613.23 1206.98,1613.23 1206.98,1632.13 1226.2,1632.13 "/>
    <polygon id="Vector_164" class="fil18" points="1243.68,1742.57 1204.33,1742.57 1204.33,1781.33 1243.68,1781.33 "/>
    <polygon id="Vector_165" class="fil18" points="1035.63,1735.13 1016.36,1735.13 1016.36,1754.03 1035.63,1754.03 "/>
    <polygon id="Vector_166" class="fil21" points="1204.93,1811.11 1185.7,1811.11 1185.7,1830.02 1204.93,1830.02 "/>
    <polygon id="Vector_167" class="fil18" points="1396.39,1648.89 1377.17,1648.89 1377.17,1667.8 1396.39,1667.8 "/>
    <polygon id="Vector_168" class="fil18" points="1527.07,1862.89 1507.85,1862.89 1507.85,1881.8 1527.07,1881.8 "/>
    <polygon id="Vector_169" class="fil18" points="1574.19,1763.95 1554.95,1763.95 1554.95,1782.88 1574.19,1782.88 "/>
    <polygon id="Vector_170" class="fil20" points="1637.37,1780.09 1618.16,1780.09 1618.16,1799 1637.37,1799 "/>
    <polygon id="Vector_171" class="fil22" points="1706.63,1828.47 1687.4,1828.47 1687.4,1847.42 1706.63,1847.42 "/>
    <polygon id="Vector_172" class="fil20" points="1914.35,1696.96 1895.11,1696.96 1895.11,1716.19 1914.35,1716.19 "/>
    <polygon id="Vector_173" class="fil22" points="1774.99,1801.17 1755.76,1801.17 1755.76,1820.41 1774.99,1820.41 "/>
    <polygon id="Vector_174" class="fil18" points="1376.83,1745.97 1326.8,1745.97 1326.8,1795.6 1376.83,1795.6 "/>
    <polygon id="Vector_175" class="fil18" points="1497.33,1794.98 1447.31,1794.98 1447.31,1844.29 1497.33,1844.29 "/>
    <polygon id="Vector_176" class="fil18" points="1486.91,1710.92 1447.61,1710.92 1447.61,1749.69 1486.91,1749.69 "/>
    <polygon id="Vector_177" class="fil18" points="1423.49,1840.27 1384.19,1840.27 1384.19,1879.33 1423.49,1879.33 "/>
    <polygon id="Vector_178" class="fil18" points="1345.77,1817.31 1306.48,1817.31 1306.48,1856.37 1345.77,1856.37 "/>
    <polygon id="Vector_179" class="fil18" points="1619.32,1833.44 1579.99,1833.44 1579.99,1872.21 1619.32,1872.21 "/>
    <polygon id="Vector_180" class="fil20" points="1726.13,1761.48 1686.8,1761.48 1686.8,1800.55 1726.13,1800.55 "/>
    <polygon id="Vector_181" class="fil20" points="1850.95,1735.13 1811.62,1735.13 1811.62,1773.89 1850.95,1773.89 "/>
   </g>
  </g>
 </g>
</svg>
