<?xml version="1.0" encoding="UTF-8"?>
<!DOCTYPE svg PUBLIC "-//W3C//DTD SVG 1.0//EN" "http://www.w3.org/TR/2001/REC-SVG-20010904/DTD/svg10.dtd">
<!-- Creator: CorelDRAW 2019 (64-Bit) -->
<svg xmlns="http://www.w3.org/2000/svg" xml:space="preserve" width="2.37501in" height="2.37501in" version="1.0" style="shape-rendering:geometricPrecision; text-rendering:geometricPrecision; image-rendering:optimizeQuality; fill-rule:evenodd; clip-rule:evenodd"
viewBox="0 0 2375.01 2375.01"
 xmlns:xlink="http://www.w3.org/1999/xlink"
 xmlns:xodm="http://www.corel.com/coreldraw/odm/2003">
 <defs>
  <style type="text/css">
   <![CDATA[
    .fil5 {fill:none}
    .fil2 {fill:black}
    .fil6 {fill:#056A2D;fill-rule:nonzero}
    .fil3 {fill:#33DC76;fill-rule:nonzero}
    .fil4 {fill:white;fill-rule:nonzero;fill-opacity:0.200000}
    .fil1 {fill:url(#id1)}
    .fil0 {fill:url(#id2)}
   ]]>
  </style>
    <clipPath id="id0">
     <path d="M1187.5 187.48c552.3,0 1000.02,447.72 1000.02,1000.02 0,552.3 -447.72,1000.02 -1000.02,1000.02 -552.3,0 -1000.02,-447.72 -1000.02,-1000.02 0,-552.3 447.72,-1000.02 1000.02,-1000.02z"/>
    </clipPath>
  <linearGradient id="id1" gradientUnits="userSpaceOnUse" x1="-560.06" y1="356.37" x2="3084.44" y2="1930.74">
   <stop offset="0" style="stop-opacity:1; stop-color:#4DA971"/>
   <stop offset="0.380392" style="stop-opacity:1; stop-color:#00AB44"/>
   <stop offset="0.741176" style="stop-opacity:1; stop-color:#28DB6F"/>
   <stop offset="1" style="stop-opacity:1; stop-color:#33DC76"/>
  </linearGradient>
  <linearGradient id="id2" gradientUnits="userSpaceOnUse" xlink:href="#id1" x1="-746.7" y1="267.61" x2="3287.03" y2="2010.12">
  </linearGradient>
 </defs>
 <g id="Layer_x0020_1">
  <metadata id="CorelCorpID_0Corel-Layer"/>
  <g id="_1920480222864">
   <circle class="fil0" cx="1187.5" cy="1187.5" r="1187.5"/>
   <circle class="fil1" cx="1187.5" cy="1187.5" r="1072.92"/>
   <path class="fil2" d="M1187.5 187.48c552.3,0 1000.02,447.72 1000.02,1000.02 0,552.3 -447.72,1000.02 -1000.02,1000.02 -552.3,0 -1000.02,-447.72 -1000.02,-1000.02 0,-552.3 447.72,-1000.02 1000.02,-1000.02z"/>
   <g style="clip-path:url(#id0)">
    <g>
     <path id="1" class="fil3" d="M1123.48 1926.54l0 -207.09 36.36 34.78c-50.59,-2.11 -99.85,-7.9 -147.81,-17.39 -47.95,-9.48 -92.74,-23.45 -134.37,-41.89 -41.63,-18.44 -78.78,-40.84 -111.45,-67.19l61.65 -159.66c49.54,36.89 103.81,65.34 162.83,85.36 59.02,20.02 123.83,30.04 194.44,30.04 79.04,0 136.74,-13.96 173.1,-41.89 36.36,-27.93 54.54,-62.97 54.54,-105.13 0,-34.78 -12.91,-62.7 -38.73,-83.78 -25.82,-21.07 -69.82,-38.46 -132,-52.17l-167.57 -36.36c-64.29,-14.76 -117.77,-35.31 -160.45,-61.65 -42.69,-26.35 -74.3,-59.81 -94.85,-100.38 -20.55,-40.57 -30.83,-87.73 -30.83,-141.48 0,-62.18 15.28,-117.77 45.85,-166.78 30.56,-49.01 73.24,-88.26 128.04,-117.77 54.8,-29.51 119.09,-46.9 192.86,-52.17l-31.62 23.71 0 -199.18 158.08 0 0 199.18 -33.2 -25.29c60.07,3.16 119.35,15.28 177.84,36.36 58.49,21.08 107.23,51.64 146.23,91.69l-60.07 151.76c-40.05,-36.89 -85.89,-64.55 -137.53,-82.99 -51.64,-18.44 -108.02,-27.67 -169.15,-27.67 -69.56,0 -124.35,15.02 -164.4,45.06 -40.05,30.04 -60.07,69.29 -60.07,117.77 0,35.83 12.38,65.08 37.15,87.74 24.77,22.66 66.13,40.31 124.09,52.96l167.57 36.36c101.17,21.07 176.26,55.59 225.27,103.54 49,47.95 73.51,110.92 73.51,188.91 0,61.13 -15.28,115.14 -45.84,162.04 -30.56,46.9 -72.46,84.31 -125.68,112.24 -53.22,27.93 -115.13,45.58 -185.74,52.96l30.04 -33.2 0 208.67 -158.08 0z"/>
     <path class="fil4" d="M1930.77 1849.62c392,-394.85 390.11,-1031.74 -4.73,-1423.74 -394.87,-392 -1031.75,-390.11 -1423.76,4.74l1428.49 1418.99z"/>
    </g>
   </g>
   <path class="fil5" d="M1187.5 187.48c552.3,0 1000.02,447.72 1000.02,1000.02 0,552.3 -447.72,1000.02 -1000.02,1000.02 -552.3,0 -1000.02,-447.72 -1000.02,-1000.02 0,-552.3 447.72,-1000.02 1000.02,-1000.02z"/>
   <path class="fil6" d="M1215.54 33.32c-9.35,-0.21 -18.68,-0.31 -28.04,-0.34l0 27.78c9.18,0.03 18.33,0.13 27.51,0.33l0.53 -27.77 -28.82 -0.33 0.18 27.78 0.6 -0 28.04 -27.44zm-169.04 8.19c-9.17,1.13 -18.81,2.18 -27.88,3.74l4.2 27.46c8.9,-1.48 18.21,-2.53 27.19,-3.64l-3.5 -27.56zm-165.35 32.56c-9.04,2.47 -18.05,5.07 -27.02,7.78l8.08 26.57c8.76,-2.63 17.55,-5.17 26.37,-7.58l-7.43 -26.77zm-158.84 56.47c-8.58,3.78 -17.1,7.67 -25.59,11.65l11.91 25.1c8.28,-3.89 16.6,-7.69 24.97,-11.37l-11.29 -25.38zm-148.84 79.09c-7.94,4.98 -15.8,10.08 -23.61,15.26l15.41 23.11c7.63,-5.05 15.31,-10.03 23.06,-14.9l-14.86 -23.47zm-135.72 99.89c-7.12,6.1 -14.15,12.28 -21.15,18.52l18.56 20.68c6.83,-6.1 13.69,-12.13 20.65,-18.09l-18.06 -21.1zm-119.87 118.56c-6.16,7.06 -12.26,14.17 -18.24,21.39l21.43 17.68c5.86,-7.03 11.8,-13.98 17.81,-20.88l-20.99 -18.19zm-101.39 134.61c-5.08,7.88 -10.05,15.82 -14.94,23.81l23.74 14.43c4.78,-7.8 9.63,-15.55 14.59,-23.24l-23.39 -15zm-80.74 147.95c-3.89,8.53 -7.63,17.12 -11.31,25.74l25.58 10.83c3.59,-8.41 7.24,-16.8 11.04,-25.12l-25.31 -11.45zm-58.24 158.2c-2.58,9.02 -5.04,18.06 -7.41,27.13l26.91 6.92c2.31,-8.85 4.72,-17.67 7.23,-26.46l-26.72 -7.59zm-34.41 165.07c-1.2,9.28 -2.32,18.54 -3.36,27.84l27.62 2.98c1.01,-9.13 2.11,-18.21 3.3,-27.31l-27.56 -3.5zm-10.03 168.16c0,9.32 0.36,18.8 0.69,28.13l27.76 -1.06c-0.31,-9.09 -0.67,-18.33 -0.67,-27.42l-27.78 0.35zm14.26 167.95c1.42,9.25 3.07,18.51 4.75,27.72l27.31 -5.06c-1.64,-8.98 -3.25,-18.02 -4.63,-27.04l-27.43 4.37zm38.6 164.13c2.81,8.94 5.73,17.85 8.76,26.72l26.26 -9.06c-2.96,-8.65 -5.81,-17.35 -8.55,-26.07l-26.47 8.42zm62.24 156.65c4.09,8.43 8.28,16.82 12.58,25.15l24.65 -12.81c-4.2,-8.13 -8.28,-16.31 -12.28,-24.54l-24.95 12.2zm84.46 145.85c5.26,7.75 10.65,15.43 16.11,23.04l22.54 -16.24c-5.33,-7.44 -10.59,-14.93 -15.73,-22.5l-22.92 15.69zm104.74 132.02c6.39,6.91 12.86,13.69 19.33,20.52l19.87 -19.41c-6.38,-6.38 -12.63,-13.29 -18.76,-19.92l-20.44 18.81zm122.82 115.5c7.28,5.9 14.61,11.73 22.03,17.46l16.91 -22.05c-7.24,-5.59 -14.41,-11.28 -21.51,-17.05l-17.43 21.64zm138.2 96.44c8.05,4.8 16.17,9.48 24.34,14.07l13.55 -24.25c-7.97,-4.49 -15.89,-9.06 -23.75,-13.74l-14.14 23.91zm150.8 75.3c8.68,3.56 17.39,7 26.14,10.36l9.87 -25.97c-8.54,-3.28 -17.04,-6.64 -25.51,-10.11l-10.5 25.72zm160.24 52.39c9.11,2.25 18.22,4.38 27.38,6.42l5.91 -27.14c-8.93,-1.98 -17.83,-4.07 -26.71,-6.26l-6.58 26.98zm166.13 28.35c9.33,0.91 18.68,1.67 28.03,2.35l1.93 -27.71c-9.12,-0.67 -18.23,-1.41 -27.33,-2.3l-2.63 27.65zm168.5 3.98c9.36,-0.43 18.73,-1.01 28.07,-1.69l-2.1 -27.7c-9.11,0.68 -18.26,1.23 -27.38,1.65l1.41 27.74zm167.31 -20.33c9.2,-1.78 18.38,-3.73 27.53,-5.76l-6.08 -27.1c-8.93,1.98 -17.87,3.88 -26.85,5.61l5.4 27.25zm162.59 -44.59c8.83,-3.14 17.63,-6.37 26.38,-9.74l-10.03 -25.91c-8.54,3.28 -17.12,6.43 -25.74,9.5l9.39 26.14zm154.27 -67.93c8.28,-4.39 16.5,-8.89 24.67,-13.48l-13.71 -24.17c-7.97,4.49 -16,8.87 -24.07,13.16l13.12 24.49zm142.67 -89.7c7.56,-5.55 15.02,-11.2 22.44,-16.93l-17.04 -21.94c-7.24,5.59 -14.53,11.12 -21.91,16.53l16.5 22.35zm128.2 -109.51c6.65,-6.62 13.23,-13.26 19.74,-20l-20.1 -19.17c-6.31,6.61 -12.81,13.08 -19.29,19.53l19.65 19.65zm110.93 -126.87c5.63,-7.49 11.19,-15.03 16.64,-22.65l-22.64 -16.1c-5.33,7.44 -10.75,14.81 -16.26,22.12l22.25 16.63zm91.36 -141.62c4.5,-8.22 8.87,-16.51 13.18,-24.84l-24.72 -12.66c-4.2,8.13 -8.47,16.22 -12.86,24.24l24.41 13.26zm69.74 -153.46c3.24,-8.8 6.36,-17.63 9.39,-26.5l-26.31 -8.91c-2.96,8.65 -6,17.28 -9.17,25.86l26.09 9.55zm46.49 -162.06c1.91,-9.18 3.73,-18.38 5.41,-27.6l-27.35 -4.88c-1.63,8.99 -3.42,17.97 -5.28,26.92l27.21 5.57zm22.28 -167.06c0.56,-9.36 1.01,-18.73 1.34,-28.1l-27.76 -0.87c-0.31,9.13 -0.77,18.27 -1.31,27.39l27.73 1.58zm-2.06 -168.54c-0.8,-9.33 -1.65,-18.69 -2.7,-28l-27.6 3.16c1,9.09 1.85,18.19 2.63,27.3l27.67 -2.46zm-26.41 -166.45c-2.13,-9.13 -4.39,-18.23 -6.77,-27.3l-26.86 7.09c2.31,8.85 4.51,17.72 6.59,26.63l27.03 -6.42zm-50.51 -160.85c-3.46,-8.7 -7.02,-17.38 -10.7,-26l-25.52 10.97c3.59,8.42 7.06,16.88 10.44,25.38l25.78 -10.35zm-73.52 -151.67c-4.69,-8.11 -9.49,-16.17 -14.38,-24.16l-23.65 14.57c4.78,7.8 9.45,15.67 14.03,23.59l24 -13.99zm-94.83 -139.32c-5.81,-7.35 -11.75,-14.6 -17.73,-21.81l-21.32 17.81c5.85,7.03 11.64,14.12 17.31,21.3l21.74 -17.29zm-114.07 -124.15c-6.83,-6.39 -13.7,-12.82 -20.71,-19.02l-18.43 20.78c6.81,6.11 13.53,12.31 20.21,18.57l18.93 -20.33zm-130.79 -106.27c-7.69,-5.37 -15.43,-10.63 -23.24,-15.81l-15.28 23.2c7.63,5.05 15.19,10.2 22.69,15.44l15.83 -22.83zm-144.85 -86.16c-8.38,-4.2 -16.82,-8.28 -25.31,-12.26l-11.75 25.17c8.28,3.9 16.52,7.87 24.69,11.96l12.36 -24.87zm-155.92 -64.08c-8.92,-2.91 -17.85,-5.72 -26.83,-8.42l-7.92 26.63c8.76,2.62 17.48,5.37 26.17,8.21l8.58 -26.42zm-163.67 -40.53c-9.24,-1.56 -18.5,-3.07 -27.78,-4.4l-3.85 27.51c9.05,1.29 18.08,2.78 27.09,4.3l4.54 -27.41z"/>
  </g>
 </g>
</svg>
