<?xml version="1.0" encoding="UTF-8"?>
<!DOCTYPE svg PUBLIC "-//W3C//DTD SVG 1.1//EN" "http://www.w3.org/Graphics/SVG/1.1/DTD/svg11.dtd">
<!-- Creator: CorelDRAW -->
<svg xmlns="http://www.w3.org/2000/svg" xml:space="preserve" width="11.8839mm" height="11.3504mm" version="1.1" style="shape-rendering:geometricPrecision; text-rendering:geometricPrecision; image-rendering:optimizeQuality; fill-rule:evenodd; clip-rule:evenodd"
viewBox="0 0 225602.36 215474.47"
 xmlns:xlink="http://www.w3.org/1999/xlink"
 xmlns:xodm="http://www.corel.com/coreldraw/odm/2003">
 <defs>
  <style type="text/css">
   <![CDATA[
    .fil0 {fill:white}
   ]]>
  </style>
 </defs>
 <g id="Layer_x0020_1">
  <metadata id="CorelCorpID_0Corel-Layer"/>
  <g id="_105553159277056">
   <path class="fil0" d="M126459.12 90177.16l-178.45 -20153.27 -48285.46 11.39 37.97 145281.63 48281.67 157.57c0,-22689.52 0,-45371.44 0,-68055.26 0,-10864.47 -1167.51,-21294.2 4013.19,-29679.38 10629.07,-17206.98 34615.18,-17220.26 42831.4,-846.68 4438.43,8842.68 4089.12,19074.99 4085.33,29736.33 -7.59,22945.8 0,45891.6 0,68837.4l48357.6 -1.9c0,-22697.11 0,-45371.44 0,-68045.77 0,-21932.06 -140.48,-41162.72 -10454.41,-57490.74 -15430.09,-24420.84 -50113.61,-29557.88 -72077.94,-16350.8 -4914.92,2957.69 -14078.43,11783.29 -16610.88,16599.49z"/>
   <polygon class="fil0" points="2832.39,215326.4 51197.59,215474.47 51193.79,70023.89 2898.84,70035.28 "/>
   <path class="fil0" d="M19680.57 1087.78c-33054.71,7893.49 -22095.32,56945.9 15207.97,48095.62 32069.44,-7606.84 22404.76,-57078.79 -15207.97,-48095.62z"/>
  </g>
 </g>
</svg>
