<?xml version="1.0" encoding="UTF-8"?>
<!DOCTYPE svg PUBLIC "-//W3C//DTD SVG 1.1//EN" "http://www.w3.org/Graphics/SVG/1.1/DTD/svg11.dtd">
<!-- Creator: CorelDRAW -->
<svg xmlns="http://www.w3.org/2000/svg" xml:space="preserve" width="18.5608mm" height="25.1206mm" version="1.1" style="shape-rendering:geometricPrecision; text-rendering:geometricPrecision; image-rendering:optimizeQuality; fill-rule:evenodd; clip-rule:evenodd"
viewBox="0 0 903.61 1222.96"
 xmlns:xlink="http://www.w3.org/1999/xlink"
 xmlns:xodm="http://www.corel.com/coreldraw/odm/2003">
 <defs>
  <style type="text/css">
   <![CDATA[
    .fil1 {fill:#41BA71;fill-rule:nonzero}
    .fil2 {fill:#EBEBEB;fill-rule:nonzero}
    .fil0 {fill:white;fill-rule:nonzero}
   ]]>
  </style>
 </defs>
 <g id="Layer_x0020_1">
  <metadata id="CorelCorpID_0Corel-Layer"/>
  <g id="_105553189550272">
   <polygon class="fil0" points="772.04,908.31 767.01,112.8 600.3,8.32 122.78,8.32 128.47,908.31 "/>
   <path class="fil1" d="M771.5 916.63l-643.58 0c-4.37,0 -7.77,-3.37 -7.79,-7.73l-5.69 -899.98c-0.01,-2.31 0.93,-4.58 2.62,-6.27 1.69,-1.69 3.96,-2.65 6.27,-2.65l477.52 0c1.51,0 2.97,0.41 4.22,1.19l166.72 104.48c2.22,1.39 3.56,3.84 3.58,6.53l5.03 795.5c0,2.31 -0.94,4.58 -2.62,6.27 -1.69,1.69 -3.96,2.65 -6.27,2.65zm-634.74 -16.64l0 0 626.89 0 -4.95 -782.28 -161.26 -101.06 -466.27 0 5.59 883.34z"/>
   <polygon class="fil2" points="767.01,112.8 600.3,8.32 654.93,146.74 "/>
   <path class="fil1" d="M654.38 155.06c-3.17,0 -6.06,-1.83 -7.24,-4.84l-54.63 -138.42c-1.31,-3.32 -0.24,-7.24 2.64,-9.68 2.88,-2.44 6.9,-2.8 9.91,-0.93l166.72 104.49c2.7,1.69 4.04,4.87 3.43,8.13 -0.61,3.26 -3.06,5.98 -6.26,6.95l-112.08 33.93c-0.83,0.25 -1.66,0.37 -2.48,0.37zm-36.61 -125.67l0 0 42.34 107.25 86.84 -26.29 -129.18 -80.95z"/>
   <path class="fil1" d="M365.54 413.81c0.13,20.08 -16.05,36.36 -36.13,36.36 -20.08,0 -36.45,-16.28 -36.58,-36.36 -0.13,-20.08 16.04,-36.36 36.12,-36.36 20.08,0 36.46,16.28 36.59,36.36z"/>
   <path class="fil1" d="M601.44 413.81c0.13,20.08 -16.05,36.36 -36.13,36.36 -20.08,0 -36.46,-16.28 -36.59,-36.36 -0.13,-20.08 16.05,-36.36 36.13,-36.36 20.08,0 36.46,16.28 36.59,36.36z"/>
   <path class="fil1" d="M652.5 649.61c-4.32,0 -7.76,-3.34 -7.78,-7.72 -0.37,-58.46 -88.93,-106.02 -197.41,-106.02 -71.87,0 -137.81,21.37 -172.08,55.77 -15.24,15.3 -22.91,31.8 -22.8,49.05 0.03,4.59 -3.68,8.57 -8.29,8.9 -4.62,0.29 -8.36,-3.12 -8.4,-7.7 -0.13,-21.74 9.57,-43.03 28.05,-61.58 37.53,-37.67 108.27,-61.08 184.61,-61.08 119.01,0 212.57,53.36 213,121.47 0.02,4.59 -3.68,8.57 -8.29,8.9 -0.2,0.01 -0.41,0.02 -0.61,0.02z"/>
   <path class="fil1" d="M236.38 340.15c-2.03,0 -4.01,-0.74 -5.52,-2.22 -3.16,-3.13 -3.01,-8.4 0.34,-11.77l39.05 -39.29c3.35,-3.38 8.64,-3.56 11.79,-0.44 3.17,3.13 3.01,8.4 -0.33,11.76l-39.05 39.3c-1.76,1.77 -4.05,2.66 -6.28,2.66z"/>
   <path class="fil1" d="M655.73 340.15c-2.03,0 -4.03,-0.74 -5.53,-2.24l-39.56 -39.3c-3.15,-3.13 -2.99,-8.4 0.37,-11.76 3.35,-3.36 8.62,-3.54 11.79,-0.4l39.55 39.3c3.15,3.13 2.99,8.4 -0.37,11.76 -1.75,1.76 -4.03,2.65 -6.26,2.65z"/>
   <polygon class="fil1" points="-0,1086.14 38.82,1086.14 89.94,1160.57 89.47,1086.14 128.65,1086.14 129.5,1220.67 90.32,1220.67 39.48,1146.8 39.94,1220.67 0.85,1220.67 "/>
   <path class="fil1" d="M151.46 1153.5c-0.14,-21.96 5.87,-39.06 18.03,-51.3 12.16,-12.23 29.16,-18.35 51,-18.35 22.39,0 39.68,6.01 51.87,18.03 12.19,12.02 18.35,28.86 18.49,50.52 0.1,15.72 -2.46,28.61 -7.69,38.67 -5.22,10.07 -12.82,17.9 -22.79,23.49 -9.97,5.59 -22.41,8.39 -37.34,8.39 -15.17,0 -27.74,-2.41 -37.71,-7.25 -9.97,-4.83 -18.08,-12.48 -24.33,-22.94 -6.24,-10.46 -9.42,-23.55 -9.52,-39.27zm41.57 0.18l0 0c0.09,13.58 2.67,23.33 7.76,29.27 5.09,5.93 11.97,8.9 20.66,8.9 8.93,0 15.83,-2.9 20.69,-8.71 4.86,-5.81 7.24,-16.24 7.14,-31.29 -0.08,-12.66 -2.69,-21.91 -7.84,-27.75 -5.15,-5.84 -12.09,-8.76 -20.84,-8.76 -8.38,0 -15.09,2.96 -20.13,8.9 -5.04,5.93 -7.51,15.75 -7.43,29.46z"/>
   <path class="fil1" d="M376.04 1086.14l61.76 0c12.18,0 22.02,1.65 29.53,4.96 7.52,3.3 13.74,8.04 18.67,14.22 4.94,6.18 8.53,13.37 10.78,21.57 2.25,8.2 3.41,16.88 3.47,26.06 0.09,14.38 -1.48,25.52 -4.7,33.45 -3.22,7.92 -7.72,14.56 -13.5,19.91 -5.78,5.36 -12,8.92 -18.65,10.69 -9.1,2.45 -17.36,3.67 -24.76,3.67l-61.76 0 -0.85 -134.52zm41.76 30.47l0 0 0.46 73.5 10.18 0c8.69,0 14.86,-0.96 18.52,-2.89 3.66,-1.93 6.51,-5.29 8.56,-10.1 2.05,-4.8 3.04,-12.58 2.97,-23.35 -0.09,-14.25 -2.48,-24.01 -7.16,-29.27 -4.68,-5.26 -12.41,-7.89 -23.18,-7.89l-10.37 0z"/>
   <path class="fil1" d="M597.01 1198.46l-47.19 0 -6.42 22.2 -42.44 0 49.71 -134.52 45.34 0 51.4 134.52 -43.53 0 -6.87 -22.2zm-8.81 -29.09l0 0 -15.16 -48.36 -14.39 48.36 29.54 0z"/>
   <polygon class="fil1" points="637.38,1086.14 763.73,1086.14 763.95,1119.36 721.55,1119.36 722.19,1220.67 680.63,1220.67 679.98,1119.36 637.59,1119.36 "/>
   <path class="fil1" d="M853.21 1198.46l-47.19 0 -6.42 22.2 -42.45 0 49.71 -134.52 45.34 0 51.4 134.52 -43.53 0 -6.87 -22.2zm-8.81 -29.09l0 0 -15.16 -48.36 -14.39 48.36 29.55 0z"/>
  </g>
 </g>
</svg>
