<?xml version="1.0" encoding="UTF-8"?>
<!DOCTYPE svg PUBLIC "-//W3C//DTD SVG 1.1//EN" "http://www.w3.org/Graphics/SVG/1.1/DTD/svg11.dtd">
<!-- Creator: CorelDRAW -->
<svg xmlns="http://www.w3.org/2000/svg" xml:space="preserve" width="204.931mm" height="14.8325mm" version="1.1" style="shape-rendering:geometricPrecision; text-rendering:geometricPrecision; image-rendering:optimizeQuality; fill-rule:evenodd; clip-rule:evenodd"
viewBox="0 0 50005.57 3619.3"
 xmlns:xlink="http://www.w3.org/1999/xlink"
 xmlns:xodm="http://www.corel.com/coreldraw/odm/2003">
 <defs>
  <style type="text/css">
   <![CDATA[
    .fil6 {fill:#4FA884}
    .fil3 {fill:#54AB88}
    .fil4 {fill:#59D4A3}
    .fil1 {fill:#6EC9A5}
    .fil5 {fill:#76C9A8}
    .fil2 {fill:#83F2C6}
    .fil0 {fill:#BEF7E0}
   ]]>
  </style>
 </defs>
 <g id="Layer_x0020_1">
  <metadata id="CorelCorpID_0Corel-Layer"/>
  <g id="_105553515137056">
   <circle class="fil0" cx="1809.65" cy="1809.65" r="1809.65"/>
   <circle class="fil0" cx="7994.48" cy="1809.65" r="1809.65"/>
   <circle class="fil0" cx="13808.24" cy="1809.65" r="1809.65"/>
   <circle class="fil0" cx="19745.66" cy="1809.65" r="1809.65"/>
   <circle class="fil0" cx="25856.6" cy="1809.65" r="1809.65"/>
   <circle class="fil0" cx="31237.38" cy="1809.65" r="1809.65"/>
   <circle class="fil0" cx="36989.26" cy="1809.65" r="1809.65"/>
   <circle class="fil0" cx="42741.14" cy="1809.65" r="1809.65"/>
   <circle class="fil0" cx="48195.92" cy="1809.65" r="1809.65"/>
   <path class="fil1" d="M1747.85 681.84l-204.16 1.2 -0.83 -186.74 -222.78 0.32 -0.39 186.03 -368.16 0.51c-0.41,22.01 -3.95,254.24 2.73,278.34 0.22,0.83 0.71,2.32 1.27,3.39l271.95 2.12 0.51 1685.22 -272.39 0.29c-0.59,2.9 -1.15,3.39 -1.29,5.25 -7.34,88.41 -4.51,188.67 -2.76,277.25l366.53 1.27 1.88 184.42 222.59 2.37 0.49 -185.69 203.77 -1.05 1.42 188.38 222.03 0.46 0.95 -197.8c315.53,-24.94 583.14,-130.55 676.37,-458.3 44.7,-157.12 18.91,-343.2 -50.61,-470.72 -37.19,-68.18 -80.52,-114.44 -127.76,-155.75 -21.64,-18.91 -56.24,-41.53 -84.33,-57.39l-98.73 -46.44c14.01,-12.01 51.29,-29.99 70.45,-43.75 26.57,-19.13 41.65,-37.24 63.35,-56.22 33.62,-29.43 70.15,-93.11 93.48,-145.92 50.44,-114.1 57.39,-280.22 17.42,-407.16 -38.94,-123.71 -119.05,-221.49 -193.57,-280.47 -112.76,-89.26 -201.38,-91.26 -364.67,-113.17l-1.88 -197.7 -221.51 -0.27 -1.34 187.72zm-177.86 938.25c121.69,10.49 351.52,2.81 453.62,-32.26 120.59,-41.38 189.47,-137.48 191.38,-291.94 4.2,-340.42 -334.15,-341.91 -644.14,-328.15l-0.85 652.34zm0 1031.66c140.82,4.03 413.09,5.93 531.02,-34.19 293.23,-99.78 313.53,-561.37 1.78,-678.99 -131.91,-49.75 -378.51,-37.04 -532.82,-37.92l0.02 751.09z"/>
   <g>
    <path class="fil1" d="M7121.69 1834.82l872.51 -395.79 -0.2 -1051.25c-5.59,4.64 -23.01,35.26 -28.16,43.87l-627.11 1040.81c-18.59,30.79 -35.8,59.86 -54.39,90.65l-109.1 180.96c-9.47,15.89 -17.45,29.96 -27.16,45.34 -6.32,10 -23.72,35.33 -26.4,45.41z"/>
    <path class="fil2" d="M7994.2 1439.03l873.07 395.84 -217.41 -362.06c-36.31,-60.69 -72.69,-120.25 -109.05,-181.01l-327.32 -542.9c-37.02,-61.54 -72.13,-119.47 -109.12,-180.96l-81.89 -135.65c-5,-8.27 -8.39,-14.03 -13.59,-22.67l-14.88 -21.84 0.2 1051.25z"/>
    <path class="fil3" d="M7121.69 1834.82c6.39,10.35 402.06,240.16 434.95,259.85 35.99,21.55 73.08,42.92 109.07,64.47l328.44 194.38 0.05 -914.48 -872.51 395.79z"/>
    <path class="fil4" d="M7994.15 2353.51c68.1,-42.26 147.7,-86.6 218.39,-128.98 73.01,-43.78 144.65,-85.33 217.85,-129.18 73.42,-44 144.8,-84.7 218.22,-128.86 37.21,-22.38 71.89,-42.24 109.07,-64.44 19.08,-11.37 37.11,-21.79 55.34,-32.7 10,-5.98 49.88,-27.48 54.24,-34.48l-873.07 -395.84 -0.05 914.48z"/>
    <path class="fil5" d="M7994.03 3231.49l0.24 -714.81c-68.05,-37.72 -154.09,-93.68 -218.24,-128.62 -19.23,-10.47 -35.65,-21.55 -53.63,-31.84l-218.22 -128.79c-9.96,-5.95 -18.74,-10.74 -27.82,-16.23 -9.39,-5.64 -17.54,-10.91 -27.55,-16.47l-109.07 -64.47c-52.95,-31.75 -175.86,-100.73 -218.05,-128.98 3.59,13.49 162.78,232.15 189.04,269.36l136.23 192.7c18.5,26.74 36.72,50.46 54.93,77.16l272.95 384.9c49.24,72.72 112.42,155.78 163.73,229.93 9.54,13.81 16.81,24.82 26.69,38.04 6.44,8.61 22.21,33.16 28.77,38.11z"/>
    <path class="fil3" d="M7994.27 2516.68l-0.24 714.81c8.13,-5.34 45.92,-62.13 55.22,-74.72 19.08,-25.82 35.33,-51.44 54.73,-77.35 19.45,-26.01 35.58,-50.83 54.76,-77.33 19.15,-26.5 36.21,-50.27 54.85,-77.25 68.96,-99.92 147.8,-206.87 218.56,-307.19l108.41 -153.17c18.98,-25.72 36.53,-51.39 54.78,-77.28l108.76 -152.82c28.99,-44.07 77.72,-107.85 109.83,-154.36 9.22,-13.37 17.13,-25.23 26.72,-38.04 5.34,-7.13 8.88,-12.62 14.08,-19.59 4.78,-6.42 10.37,-12.98 12.54,-21.11 -17.06,11.42 -35.09,20.81 -53.56,31.89 -252.43,151.26 -512.03,299.5 -763.73,450.96 -18.67,11.25 -36.97,23.06 -55.71,32.55z"/>
   </g>
   <g>
    <polygon class="fil1" points="13034.57,1324.1 13318.79,1608.06 13808.23,1120.99 14296.64,1608.03 14581.65,1325.44 13808.43,550.37 "/>
    <path class="fil1" d="M13034.69 2294.1l773.59 774.83 773.76 -773.74 -284.03 -284.64 -489.12 488.68 -428.34 -427.26c-19.06,-19.06 -41.51,-44.39 -61.22,-59.93l-284.64 282.05z"/>
    <polygon class="fil1" points="13519.69,1808.86 13807.33,2098.2 14096.8,1810.81 13809.26,1521.24 "/>
    <path class="fil1" d="M14499.69 1808.51l281.93 284.54 285.91 -283.15c-43.48,-47.63 -94.24,-94.65 -140.87,-141.28 -23.55,-23.55 -126.45,-132.4 -145.82,-142.87l-281.15 282.76z"/>
    <path class="fil1" d="M12548.94 1809.69l285.59 285.47c25.87,-34.94 266.34,-260.24 280.98,-285.37 -10.71,-18.37 -50.32,-53.22 -67.93,-70.76l-141.84 -141.87c-19.86,-19.91 -55.32,-51.27 -69.96,-71.47l-286.84 284z"/>
   </g>
   <path class="fil1" d="M18695.09 858.7c-96.12,41.48 -54.37,291.81 -54.37,399.13 0,1115.64 -98.26,988.61 363.48,988.61 200.94,0 1739.97,13.37 1794.56,-8.86 92.87,-37.82 51.83,-296.57 51.83,-398.23l-0.81 -901.33c-16.54,-134.23 -242.96,-87.28 -362.67,-87.28 -199.19,0 -1742.44,-13.45 -1792.02,7.95zm-403.28 1758.76l0 97.6c69.42,81.99 129.94,54.76 319.85,54.76 788.23,-0.02 1684.87,14.57 2458,0.73 88.6,-1.59 86.06,-5.2 129.84,-55.49l0 -97.6c-40.97,-35.38 -77.57,-66.42 -121.93,-103.88 -171.61,-145.02 -158.41,-239.25 -430.48,-238.13l-1802.83 0c-257.21,-1.05 -280.52,107.22 -552.44,342.01zm1323 64.91l261.68 0c72.18,0 59.51,11.57 72.47,-43.39 -46.58,-29.65 -350.72,-14.54 -406.84,-14.54 5.3,67.27 1.93,57.93 72.69,57.93zm-303.21 -100.19l884.74 2.32 -16.64 -2.32c-17.4,-38.85 -26.48,-69.91 -70.59,-92.38l-726.91 0c-44.78,22.3 -53,51.71 -70.59,92.38zm-509.72 -492.32l0.22 13.66 1887.09 0 0.12 -13.66 0.1 -1096.44 -1887.52 0 0 1096.44z"/>
   <g>
    <path class="fil1" d="M24646.92 1932.89c74.86,672.45 -13.96,573.11 1199.14,573.11 294.81,0 595.75,5.64 889.84,-2.78 320.61,-9.2 298.01,-247.6 325.73,-564.03 285.49,-130.45 197.33,-440.03 -12.22,-485.85 -288.71,-63.1 -302.67,272.17 -411.16,416.45 -123.27,-20.62 -239.03,-59.51 -372.8,-79.5 -494.37,-73.76 -738.57,-12.32 -1197.73,82.52 -40.55,-87.38 -87.43,-207.41 -130.33,-289.08 -43.65,-83.13 -138.38,-156.87 -272.24,-132.35 -250.09,45.83 -263.34,414.4 -18.23,481.51z"/>
    <path class="fil1" d="M24688.21 1313.56c296.62,43.95 338.39,126.42 439.61,378.53 83.55,0.1 241.03,-34.87 337.39,-44.7 128.81,-13.13 250.92,-16.52 380.85,-16.64 282.1,-0.22 466.33,25.74 733.16,62.98 56.95,-159.56 123.57,-283.1 271.56,-347.86 79.04,-34.58 89.48,-16.2 166.98,-35.67 2.78,-0.71 7.17,-1.85 10.52,-3.37 -9.13,-247.45 -167,-424.38 -362.63,-485.78 -154.65,-48.56 -625.52,-28.52 -819.59,-28.52 -201.16,0 -650.73,-20.74 -815.27,32.92 -209.09,68.23 -380.88,325.83 -342.59,488.12z"/>
    <path class="fil1" d="M26616.68 2622.07c-12.64,225.44 47.29,207.87 207.24,207.87 139.67,0 115.88,-121.64 114.05,-262.36 -114.2,46.12 -179.1,41.92 -321.29,54.49z"/>
    <path class="fil1" d="M25092.56 2619.73c-150.55,-3.03 -200.28,2.42 -323.53,-54.32 -1.34,149.04 -30.99,263.09 135.67,265.34 184.45,2.49 195.01,-28.55 187.86,-211.02z"/>
   </g>
   <path class="fil1" d="M30587.57 483.61c-66.83,9.1 -119.79,62.88 -124.98,132.11 -5.88,78.11 -0.54,178.62 -0.54,259.14l0 1935.55c0,35.02 -3.46,95.63 1.63,127.42 10.3,64.22 64.57,118.64 134.21,122.3 81.79,4.29 175.76,0.2 258.92,0.2 29.99,0 998.47,3.25 1030.9,-1.12 66.01,-8.91 119.64,-61.86 124.62,-131.47 5.61,-78.77 0.49,-177.96 0.49,-258.94l0 -1935.55c0,-36.38 3.29,-93.87 -1.66,-127.54 -9.52,-64.66 -64.03,-119.71 -133.47,-123.05 -82.87,-3.95 -175.66,-0.22 -259.63,-0.22 -30.09,0 -997.98,-3.22 -1030.48,1.2zm304.89 2597.87l-259.87 0.15c-0.37,66.2 -15.91,56.32 129.79,56.32 30.53,0 61.03,-0.12 91.53,0.07 45.92,0.32 39.24,-12.08 38.55,-56.54zm951.03 -0.2l-261.09 0.24c-0.61,38.53 -7.42,56.68 35.53,56.54l186.03 -0.07c47.36,0.37 40.31,-11.88 39.53,-56.71zm-1269.66 -2236.73c-25.5,15.18 -16.08,68.81 -16.08,101.12l0 236.06c0,16.64 -9.59,97.95 40.48,75.08 23.23,-10.61 14.06,-72.42 14.06,-101.63 0,-32.48 1.9,-281.44 -1.22,-294.25 -3.32,-13.57 -21.01,-26.01 -37.24,-16.37zm3.61 670.1c-24.18,10.49 -19.76,23.62 -19.69,53.58 0.34,139.09 -2.83,298.55 -0.12,433.88 0.56,27.33 13.76,41.29 37.33,33.23 21.16,-7.22 17.37,-29.79 17.32,-54.02l0 -362.92c0,-28.65 11.64,-123.93 -34.84,-103.75zm-8.2 -697.6c-46.53,13.03 -37.87,69.01 -37.87,116.83 0,42.56 -2.98,288.59 1.56,309.24 4.47,20.45 17.11,35.04 35.89,40.75 13.81,4.17 63.47,4.1 77.25,-0.17 46.22,-14.3 38.11,-64.96 38.11,-116.73 0,-43.34 3,-288.06 -1.42,-309.5 -4.34,-20.91 -18.01,-34.19 -36.92,-40.02 -15.52,-4.78 -62.05,-4.47 -76.62,-0.39zm-63.98 569.64l1466.85 0.07 -2.76 -68.57 -1463.65 -0.05 -0.44 68.54zm65.96 101.24c-53.68,15.18 -39.85,84.4 -39.85,142.26l-0.05 365.89c-0.15,32.04 8.08,52.24 29.84,62.52 14.74,6.93 67.08,7.74 83.84,2.9 52.93,-15.23 39.19,-86.01 39.19,-142.16l0.07 -365.87c0.05,-31.99 -9.27,-51.14 -30.7,-62.22 -15.79,-8.17 -64.22,-8.44 -82.35,-3.32zm-65.86 1364.17l1463.8 -0.02 0.37 -69.74 -1464.14 0.07 -0.02 69.69z"/>
   <path class="fil1" d="M36687.68 1402.87c69.74,-4.12 103.14,-47.78 102.97,-115.05 101.63,-25.26 210.78,-102.44 270.78,-181.57 17.54,-23.13 47.07,-66.18 54.88,-99.31 54.93,4.42 125.18,15.49 182.54,22.42 55.73,6.71 29.65,16.5 90.97,44.61 26.28,12.05 26.99,3.93 38.21,31.28 13.45,32.84 27.67,63.93 41.7,97.14l205.53 479.9c15.4,35.75 19.64,17.91 -26.3,87.09l-329 495.22 -380.12 0.32c0.29,-56.98 0.05,-113.34 0.05,-169.66 0,-204.34 19.18,-185.4 -157.66,-185.4l-341.15 0c-47.53,0 -130.2,-12.32 -152.07,21.25 -17.08,26.23 -8.91,123.66 -8.91,161.12 0,57.1 -0.63,114.56 0.12,171.64 -66.08,9.61 -346.11,-10.37 -404.18,9.08 -131.67,44.12 -103.41,195.77 -103.44,314.46 -0.02,68.25 6.12,108.51 57.44,152.04 13.45,11.42 32.06,16.89 43.6,26.08 3.46,65.13 -0.29,136.45 0.34,202.43 0.73,77.01 80.4,58.42 147.38,58.42 63.74,0 152.12,18.13 157.41,-49.36 4.86,-61.59 -6.95,-145.8 1.2,-203.85l758.36 -0.41c15.13,86.33 -25.94,224.71 31.28,249.14 22.82,9.78 786.45,4.49 848.23,4.49 46.29,0 92.58,0 138.89,0 35.41,0 108.34,8.59 131.47,-11.61 27.74,-24.25 18.86,-77.77 18.86,-122.42l0.07 -567.77c-0.24,-55.78 -29.89,-59.42 -81.21,-59.66 7.2,-31.26 70.98,-215.27 86.5,-261.53 7.88,-23.47 46.31,-144.89 55.29,-159.12 46.95,-74.52 53.88,-163.27 17.47,-243.18 -29.89,-65.59 -66.18,-81.69 -75.89,-99.19 -59.56,-107.58 -120.81,-231.05 -180.52,-341.91 -21.4,-39.75 -39.43,-75.23 -60.71,-114.34 -17.62,-32.4 -115.32,-210.48 -118.49,-232.08 -22.47,-153.12 -156.85,-243.25 -296.74,-218.93 -49.75,8.69 -105,13.03 -155.9,19.08 -22.99,2.76 -532.73,64.91 -544.56,62.76 -10.54,-1.93 -94.51,-69.67 -207.17,-13.96 -38.8,19.18 -68.98,49.14 -89.04,86.18 -33.89,62.61 -32.67,143.26 8.83,205.36 24.33,36.41 18.86,14.3 19.25,66.3 0.44,57.37 0.49,114.76 1.07,172.13 0.81,76.94 -16.98,168.44 61.91,201.77 43.09,18.18 37.26,-10.42 37.19,48.83 -0.05,46.41 -6.12,318.56 7.44,341.3 23.99,40.14 93.58,31.79 94.43,-33.23 0.66,-49.49 -3.73,-326.32 1.34,-348.28zm797.28 -607.42c-66.98,18.98 -36.41,115.37 27.11,97.56 64.1,-17.96 36.36,-115.49 -27.11,-97.56zm452.96 863.7c-62.47,23.16 -29.72,119.88 34.53,95.51 62.42,-23.69 26.94,-118.3 -34.53,-95.51zm-1055.89 48.46c-47.53,8.2 -58.39,66.18 -23.3,90.82 21.16,14.84 128.33,11.69 142.94,8.88 43.09,-8.3 50.46,-67.25 19.84,-90.26 -19.28,-14.49 -111.59,-14.25 -139.48,-9.44zm-611.59 0.78c-45.75,10.18 -55.61,63 -19.45,90.87 16.15,12.44 117.56,13.35 143.5,7.66 42.21,-9.27 50.71,-71.3 15.84,-91.6 -20.67,-12.08 -112.44,-13.05 -139.89,-6.93zm660.44 -254.09c-27.04,5.66 -87.21,73.47 -108.8,95.02 -14.03,13.98 -40.6,33.14 -33.16,68.13 5.05,23.74 30.67,43.92 60.44,37.58 23.47,-5 86.89,-76.13 106.44,-95.75 14.47,-14.52 41.12,-30.67 33.5,-66.79 -5.03,-23.79 -28.55,-44.43 -58.42,-38.19zm-609.47 0.22c-25.99,6.1 -46.8,27.23 -40.19,60.54 4.56,23.13 76.16,87.65 95.51,107.05 14.37,14.45 33.31,41.43 69.93,32.28 22.91,-5.71 42.24,-30.92 34.97,-61.81 -4.88,-20.72 -34.5,-43.82 -46.61,-55.9 -17.32,-17.3 -32.43,-32.45 -49.83,-49.83 -13.62,-13.59 -30.94,-39.99 -63.78,-32.33zm1268.64 1014.82c-28.28,6.27 -52.29,32.75 -37.46,69.35 13.32,32.87 43.48,30.97 84.11,30.94 45.26,0 194.94,6.03 228.42,-1.54 26.77,-6.03 50.02,-36.36 34.11,-71.18 -13.71,-29.94 -45.97,-29.13 -84.4,-29.11 -45.68,0 -191.06,-5.91 -224.78,1.54zm-799.89 -1290.84c27.04,0.2 112.66,-58.34 129.2,-72.25 30.65,-25.74 78.3,-72.18 91.8,-112.64l-206.34 -26.26c-19.25,-0.59 -16.25,18.42 -15.86,37.87l1.2 173.27zm-202.43 120.76l100.78 1.61 -1.1 -258.65c-14.2,-0.41 -32.23,5 -50.12,5.22 -19.45,0.2 -32.67,-3.1 -50.78,-5.44l1.22 257.26zm34.16 -555.1c-134.16,18.91 -103.83,221.68 30.04,200.04 128.72,-20.79 101.09,-218.51 -30.04,-200.04zm204.07 27.52c9.64,42.46 12.4,49 11.52,96.85l417.84 52.73c-21.13,-83.16 -11.71,-134.08 21.16,-201.99l-450.52 52.41zm657.59 -78.28c-79.47,8.52 -146.26,76.4 -136.72,166.95 8.22,78.33 79.52,145.02 168.66,134.96 76.69,-8.66 143.16,-78.45 133.57,-168.2 -8.17,-76.52 -79.89,-142.89 -165.51,-133.72zm51.9 403.25l202.92 474.11 19.79 -24.35c15.49,-19.84 47.02,-46.39 70.45,-59.47 41.87,-23.4 82.57,-35.6 138.79,-33.45l-251.04 -476.77c-25.33,26.84 -26.45,42.58 -74.37,76.13 -14.59,10.25 -30.7,19.06 -48.97,26.52 -18.4,7.52 -42.85,10.86 -57.56,17.28zm397.57 460.08c-76.5,11.91 -143.36,82.65 -128.37,174.47 12.3,75.42 83.79,140.09 173.91,125.86 74.25,-11.76 140.45,-82.23 126.28,-173 -11.76,-75.4 -82.65,-141.18 -171.81,-127.33zm-490.63 708.19l475.11 -0.02 104.56 -312.46c-72.5,12.32 -121.15,12.25 -181.91,-18.5 -48.34,-24.5 -82.4,-59.32 -107.19,-104.05 -12.15,10.13 -59.81,86.75 -73.4,107 -19.74,29.53 -208.65,309.38 -217.17,328.02zm-1060.52 -1.49c20.01,4.12 441.76,3.51 456.25,-0.29l-0.05 -250.5 -455.62 -1.02 -0.59 251.82zm-406.08 661.17l101.02 -0.15 0.39 -150.82 -100.07 -0.98 -1.34 151.95zm-101.39 -456.79c322.49,-2.27 650.61,0 974.26,-0.02 47.29,-0.02 90.26,-0.49 91.14,50.14 1.02,58.51 -61.93,51.68 -88.11,51.68l-836.35 0c-41.73,0 -101.14,-3.42 -140.75,0.76 -2.71,94.68 6.42,100.31 98.51,100.31l1219.76 0c92.75,0 105.19,-3.34 101.75,-100.53 -56.49,-4.15 -153.56,7.78 -180.69,-9.42 -11.42,-7.27 -22.11,-21.81 -21.81,-42.85 0.61,-49.36 46.8,-50.17 76.62,-50.12 36.92,0.07 91.26,3.12 126.13,-0.88 0.46,-97.87 -4.83,-100.29 -102,-100.29l-1213.76 0c-99.46,0 -104.44,0.49 -104.71,101.22zm1167.23 456.74l100.87 -0.12 0.22 -150.65 -99.9 -1.12 -1.2 151.9zm203.94 -151.63l-0.95 151.41 759.73 0.24 1.1 -557.93 -616.93 -0.05c9.69,48.61 12.98,225.86 6.71,275 -2.46,19.25 -8.86,36.24 -17.57,51.93 -27.18,48.9 -71.1,74.62 -132.08,79.4z"/>
   <path class="fil1" d="M44159.96 1645.29l0.1 956.91c-268.9,5.22 -537.07,-20.45 -805.07,-25.82 -138.31,-2.76 -276.73,-5.25 -414.92,-6.81 -79.77,-0.93 -346.94,-4.32 -410.01,0.61 -87.48,-4.81 -524.48,9.03 -611.3,12.52 -200.97,8.13 -400.06,22.03 -602.12,19.42l-0.05 -589.02 0.12 -162.05 -0.34 -920.58 173.08 11.08c4,3.15 -1.44,0.68 5.15,2.37 1.37,0.34 5.25,0.93 6.61,1.07 5.93,0.59 10.81,0.2 17.11,0.81l257.99 18.76c72.52,1.66 149.51,9.22 223.47,12.3 76.79,3.2 153.73,5.78 230.76,7.91 156.51,4.34 316.97,7.03 474.72,6.03 89.55,-3.78 186.03,-0.51 276.54,-1.32 91.16,-0.83 183.4,-2.66 273.2,-4.98 14.86,-0.66 59.95,2.05 69.3,-3.42 30.09,5.64 386.86,-16.35 422.7,-18.84 68.54,-4.73 137.11,-11.3 205.7,-16.23 47.61,-3.44 168.93,-15.59 207.8,-14.47l-0.49 419.63 -0.05 294.11zm-2684.1 -766.88c-56.02,2.34 -134.06,-24.01 -178.69,4.98 -49.07,31.84 -37.33,93.87 -37.43,164.88l-0.07 1426.42c0,68.45 -12.22,136.55 33.72,168.76 28.18,19.76 45.83,16.32 85.23,15.96 34.38,-0.32 68.76,-0.76 103.12,-1.1 66.3,-0.68 132.5,-1.61 198.77,-4 130.01,-4.71 259.58,-13.66 390.47,-17.52 66.22,-1.93 132.57,-3.68 198.84,-4.81 65.71,-1.12 139.26,1.49 203.77,-2.9l197.97 -0.68 0.22 89.41 -507.52 1.22 -10.76 16.06 -8.22 13.93 1191.43 0.61 -9.71 -17.52 -8.47 -13.13 -507.76 -0.2 -0.17 -89.33c49.8,-7.42 706.44,11.08 743.33,12.54 121.57,4.78 240.77,13.4 363.26,15.08 62.08,0.88 124.35,1.59 186.6,2.2 31.6,0.29 57.56,3.61 80.87,-12.81 15.49,-10.93 37.28,-30.43 35.77,-60.54 6.61,-8 2.27,-1215.98 2.15,-1338.77 -0.05,-55.71 6.2,-294.06 -6.3,-326.19 -21.89,-56.24 -72.89,-51.88 -112.51,-49.39 -257.41,16.18 -545.78,43.87 -797.87,46.17l-64.86 2.12c-52.32,3.78 -110.56,2.81 -163.49,3.68 -54.76,0.93 -109.46,1.68 -164.49,2.1 -111.37,0.81 -223.12,-1.24 -334.25,-0.12 -116.05,1.34 -234.96,-2.64 -350.72,-5.56 -57.37,-1.44 -114.78,-3.2 -171.81,-5.39 -29.48,-1.15 -155.68,-9.83 -173.91,-5.44 -7.74,-4.59 -178.79,-14.37 -187.25,-15.01 -35.75,-2.66 -166.1,-16.69 -191.55,-11.83 -3.98,-3.03 1.27,-0.71 -5.17,-2.15 -1.68,-0.39 -4.86,-0.73 -6.59,-0.9 -5.27,-0.46 -10.74,-0.51 -15.96,-0.81z"/>
   <path class="fil6" d="M44160.06 2602.21l-0.12 -956.89 0.07 -294.13 0.49 -419.63c-38.85,-1.12 -160.17,11.05 -207.82,14.45 -68.57,4.93 -137.13,11.52 -205.68,16.25 -35.85,2.49 -392.61,24.47 -422.7,18.84 -9.35,5.47 -54.44,2.76 -69.27,3.42 -89.82,2.32 -182.06,4.17 -273.22,4.98 -90.53,0.81 -186.99,-2.46 -276.54,1.32 -157.75,1.02 -318.22,-1.68 -474.7,-6.03 -77.08,-2.12 -154,-4.71 -230.81,-7.91 -73.94,-3.07 -150.92,-10.61 -223.44,-12.3l-257.99 -18.76c-6.3,-0.61 -11.18,-0.2 -17.13,-0.81 -1.37,-0.15 -5.22,-0.73 -6.59,-1.07 -6.59,-1.71 -1.15,0.76 -5.15,-2.37l-173.05 -11.08 0.32 920.61 -0.12 162.02 0.05 588.99c202.07,2.64 401.15,-11.27 602.12,-19.4 86.84,-3.51 523.79,-17.32 611.3,-12.52 63.05,-4.95 330.24,-1.51 410.01,-0.61 138.18,1.59 276.61,4.05 414.92,6.81 268.02,5.37 536.17,31.04 805.07,25.82z"/>
   <path class="fil1" d="M48324.46 1898.55c-344.89,0 -721.13,-1.05 -1045.88,-89.92 -46.48,-12.71 -118.76,-36.72 -157.78,-64.42 -162.27,-115.3 240.06,-197.21 328.9,-211.8 73.96,-12.18 145.63,-21.11 227,-29.77l242.84 -18.91c0,358.89 -18.96,298.43 52.19,308.28 23.16,3.25 41.38,2.85 66.32,2.83 46.02,-0.07 96.63,-4.76 141.23,2.17l204.58 -2.03c30.57,-0.02 38.19,-5.1 69.01,-5.1l0 -306.16c206.51,0 498.73,40.19 698.34,96.68 47.46,13.4 160.88,56.05 160.88,105.78 0,100.83 -317.87,151.16 -428.17,169.34 -140.33,23.16 -422.73,43.02 -559.47,43.02zm-1119.84 -1254.32l-1.12 528.38 716.05 0 0 256.77c-57.66,-22.28 -489.68,51.83 -573.87,73.08 -105.17,26.55 -409.38,105.66 -409.13,242.99 0.34,221.42 768.2,320.97 983,320.97l-0.05 854.33c-0.85,72.03 -2,44.9 9.88,54.29l513.62 0c13.13,-10.37 10.66,-8.81 9.96,-49.34 -4.78,-272 -0.07,-585.99 -0.07,-859.29 165.85,0 979.95,-81.4 1002.42,-311.24l0 -19.59c-19.06,-186.94 -576.75,-271 -697.16,-285.54 -96.8,-11.71 -200.8,-25.6 -305.26,-25.6l0 -251.84 716.03 0 0 -528.38 -1964.29 0z"/>
  </g>
 </g>
</svg>
